# xmcd
#
# Track frame offsets:
#	150
#	17085
#	28737
#	41967
#	52117
#	64460
#	76065
#	89472
#	107077
#	119240
#
# Disc length: 1763 seconds
#
# Revision: 0
# Processed by: cddbd v1.5.1PL2 Copyright (c) Steve Scherf et al.
# Submitted via: dBpowerAMP V4.0
#
DISCID=8f06e10a
DTITLE=Conway Twitty and Loretta Lynn - Hey Good Lookin'
DYEAR=1993
DGENRE=Country
TTITLE0=Making Believe
TTITLE1=I Can't Help It ( If I'm Still In Love With You )
TTITLE2=Faded Love
TTITLE3=Half As Much
TTITLE4=Please Help Me I'm Falling In Love
TTITLE5=Hey Good Lookin'
TTITLE6=Release Me
TTITLE7=Back Home Again
TTITLE8=As Soon As I Hang Up The Phone ( The Telephone Song )
TTITLE9=It's True Love
EXTD=MCAD-20735
EXTT0=
EXTT1=
EXTT2=
EXTT3=
EXTT4=
EXTT5=
EXTT6=
EXTT7=
EXTT8=
EXTT9=
PLAYORDER=
